<svg width="24" height="24" viewBox="0 0 24 24" fill="none" xmlns="http://www.w3.org/2000/svg">
<path d="M13.0002 5.64898C10.1582 2.80698 6.20821 2.14898 4.17821 4.17898M4.17821 4.17898C2.14821 6.20898 2.80721 10.158 5.64821 13M4.17821 4.17898C4.42321 5.40498 5.72221 8.07398 8.95821 8.95598M9.21121 19.789C11.2972 21.875 15.3572 21.199 18.2782 18.278C21.1982 15.357 21.8752 11.298 19.7882 9.21098C18.5302 9.46198 15.7842 10.797 14.8772 14.121C13.5822 18.871 10.7212 19.284 9.21021 19.788M9.21221 19.79C7.12621 17.703 7.80221 13.644 10.7232 10.723C13.6442 7.80298 17.7032 7.12598 19.7902 9.21298" stroke="#C67C4E" stroke-width="2" stroke-linecap="round" stroke-linejoin="round"/>
</svg>
